<svg xmlns="http://www.w3.org/2000/svg" viewBox="0 0 200 200">
  <defs>
    <linearGradient id="bgGrad" x1="0%" y1="0%" x2="100%" y2="100%">
      <stop offset="0%" style="stop-color:#667eea"/>
      <stop offset="50%" style="stop-color:#764ba2"/>
      <stop offset="100%" style="stop-color:#f093fb"/>
    </linearGradient>
    <linearGradient id="potatoGrad" x1="0%" y1="0%" x2="100%" y2="100%">
      <stop offset="0%" style="stop-color:#D4A574"/>
      <stop offset="50%" style="stop-color:#C4956A"/>
      <stop offset="100%" style="stop-color:#B8865A"/>
    </linearGradient>
    <linearGradient id="leafGrad" x1="0%" y1="0%" x2="100%" y2="100%">
      <stop offset="0%" style="stop-color:#38ef7d"/>
      <stop offset="100%" style="stop-color:#11998e"/>
    </linearGradient>
    <filter id="shadow" x="-20%" y="-20%" width="140%" height="140%">
      <feDropShadow dx="2" dy="4" stdDeviation="3" flood-color="#000" flood-opacity="0.3"/>
    </filter>
  </defs>
  
  <!-- Background Circle -->
  <circle cx="100" cy="100" r="95" fill="url(#bgGrad)" opacity="0.1"/>
  <circle cx="100" cy="100" r="90" fill="none" stroke="url(#bgGrad)" stroke-width="3"/>
  
  <!-- Potato Body -->
  <ellipse cx="100" cy="115" rx="55" ry="45" fill="url(#potatoGrad)" filter="url(#shadow)"/>
  
  <!-- Potato Spots -->
  <ellipse cx="75" cy="105" rx="6" ry="4" fill="#A67B5B" opacity="0.6"/>
  <ellipse cx="120" cy="125" rx="5" ry="3" fill="#A67B5B" opacity="0.5"/>
  <ellipse cx="90" cy="130" rx="4" ry="3" fill="#A67B5B" opacity="0.4"/>
  <ellipse cx="115" cy="100" rx="5" ry="4" fill="#A67B5B" opacity="0.5"/>
  
  <!-- Leaf/Sprout -->
  <path d="M100 70 Q85 55 95 40 Q100 50 100 70" fill="url(#leafGrad)"/>
  <path d="M100 70 Q115 55 105 40 Q100 50 100 70" fill="url(#leafGrad)"/>
  <path d="M100 75 Q80 60 85 35 Q95 55 100 75" fill="url(#leafGrad)" opacity="0.8"/>
  <path d="M100 75 Q120 60 115 35 Q105 55 100 75" fill="url(#leafGrad)" opacity="0.8"/>
  
  <!-- Shield/Protection Symbol -->
  <path d="M100 155 L80 145 L80 135 Q80 125 100 120 Q120 125 120 135 L120 145 Z" 
        fill="url(#bgGrad)" opacity="0.9" filter="url(#shadow)"/>
  <path d="M95 140 L100 145 L110 130" stroke="white" stroke-width="3" fill="none" stroke-linecap="round" stroke-linejoin="round"/>
  
  <!-- AI Circuit Pattern -->
  <circle cx="60" cy="85" r="3" fill="url(#bgGrad)"/>
  <circle cx="140" cy="85" r="3" fill="url(#bgGrad)"/>
  <circle cx="50" cy="110" r="2" fill="url(#bgGrad)"/>
  <circle cx="150" cy="110" r="2" fill="url(#bgGrad)"/>
  <line x1="60" y1="85" x2="75" y2="95" stroke="url(#bgGrad)" stroke-width="1" opacity="0.5"/>
  <line x1="140" y1="85" x2="125" y2="95" stroke="url(#bgGrad)" stroke-width="1" opacity="0.5"/>
</svg>
